<svg width="117" height="106" viewBox="0 0 117 106" fill="none" xmlns="http://www.w3.org/2000/svg">
<path d="M80.1501 88.6581C77.6449 88.6643 75.1489 88.3555 72.7207 87.7391C68.8765 93.0909 63.9004 97.5299 58.1462 100.741C63.309 103.609 69.1121 105.127 75.018 105.156C98.3458 105.156 114.225 80.8977 116.102 60.2722C115.366 62.994 110.561 88.6581 80.1501 88.6581Z" fill="url(#paint0_linear_117_288)"/>
<path d="M85.9519 24.1843C74.7299 24.1843 69.3292 30.6987 69.3292 30.6987C80.9133 31.8668 95.1413 40.0438 95.1413 56.9663C95.1413 73.3981 84.371 80.8742 75.5671 83.3624C74.696 84.8704 73.7459 86.3313 72.7207 87.739C75.1489 88.3554 77.6449 88.6642 80.1501 88.658C110.561 88.658 115.366 62.9939 116.102 60.2721C116.23 58.8859 116.289 57.5465 116.289 56.1875C116.289 33.0505 98.6262 24.1843 85.9519 24.1843Z" fill="url(#paint1_linear_117_288)"/>
<path d="M36.1423 88.658C42.0794 88.7076 47.8852 86.9116 52.7572 83.5181C51.019 84.0524 49.2137 84.3369 47.3954 84.3631C38.8096 84.3631 21.1512 78.0123 21.1512 56.9663C21.1512 40.0399 35.3791 31.8707 46.9593 30.6987C46.9593 30.6987 41.5586 24.1843 30.3366 24.1843C17.6623 24.1843 0 33.0505 0 56.1875C0 57.5309 0.0623001 58.8859 0.190796 60.2721C0.930619 63.0172 5.64213 88.658 36.1423 88.658Z" fill="url(#paint2_linear_117_288)"/>
<path d="M47.3954 84.3632C49.2137 84.3369 51.019 84.0524 52.7572 83.5182V83.5182C54.8014 82.088 56.6463 80.3923 58.2435 78.4757C57.1728 77.1285 52.1965 70.4039 52.1965 61.3975C52.1965 52.9752 56.7094 49.3773 58.2007 48.4194C55.7159 46.5765 52.7266 45.5384 49.6343 45.4446C46.4375 45.4446 37.7933 47.6368 35.7529 57.5154C35.7529 57.5154 35.7529 57.5348 35.7529 57.5465C35.6802 57.9385 35.614 58.3279 35.5543 58.7147C35.3336 60.5233 35.2257 62.3439 35.2312 64.166C35.2312 72.0782 38.6032 79.1688 41.2354 83.4987C43.2442 84.0447 45.3139 84.3351 47.3954 84.3632V84.3632Z" fill="url(#paint3_linear_117_288)"/>
<path d="M58.3097 37.6218C44.2258 37.6218 37.5285 47.9793 35.7257 57.4997C37.766 47.6328 46.4103 45.4289 49.6071 45.4289C52.6993 45.5227 55.6887 46.5608 58.1735 48.4038C61.5494 50.9192 64.4581 55.1712 64.4581 61.9581C64.4581 67.7521 62.2074 73.6707 58.228 78.4601C53.2556 84.476 45.5575 88.6579 36.1423 88.6579C5.64213 88.6579 0.930619 63.0172 0.190796 60.2721C2.06761 80.9093 17.9465 105.156 41.2743 105.156C64.0453 105.156 81.4545 82.1592 81.4545 62.9043C81.4545 49.5563 73.8733 37.6218 58.3097 37.6218Z" fill="url(#paint4_linear_117_288)"/>
<path d="M58.7263 29.7642C58.7263 29.7642 53.8708 25.0916 53.532 18.7252C53.3781 15.5357 54.1409 12.3687 55.73 9.59897C57.3192 6.82919 59.6682 4.57241 62.4994 3.0955C79.6672 -6.09388 94.5883 7.27355 92.8711 15.9451C92.8711 15.9451 80.0877 10.1355 68.3129 17.0898C59.6336 22.1751 58.7263 29.7642 58.7263 29.7642Z" fill="url(#paint5_linear_117_288)"/>
<defs>
<linearGradient id="paint0_linear_117_288" x1="106.601" y1="85.7455" x2="69.96" y2="77.1947" gradientUnits="userSpaceOnUse">
<stop offset="0.12" stop-color="#498F4A"/>
<stop offset="0.5" stop-color="#82AD4D"/>
<stop offset="0.83" stop-color="#ADC54F"/>
<stop offset="1" stop-color="#BECE50"/>
</linearGradient>
<linearGradient id="paint1_linear_117_288" x1="92.8089" y1="6.54928" x2="92.8089" y2="89.2537" gradientUnits="userSpaceOnUse">
<stop stop-color="#5B9E46"/>
<stop offset="0.09" stop-color="#70A848"/>
<stop offset="0.28" stop-color="#92B84C"/>
<stop offset="0.45" stop-color="#AAC44E"/>
<stop offset="0.61" stop-color="#B9CC4F"/>
<stop offset="0.75" stop-color="#BECE50"/>
</linearGradient>
<linearGradient id="paint2_linear_117_288" x1="26.3805" y1="6.54928" x2="26.3805" y2="89.2537" gradientUnits="userSpaceOnUse">
<stop stop-color="#5B9E46"/>
<stop offset="0.09" stop-color="#70A848"/>
<stop offset="0.28" stop-color="#92B84C"/>
<stop offset="0.45" stop-color="#AAC44E"/>
<stop offset="0.61" stop-color="#B9CC4F"/>
<stop offset="0.75" stop-color="#BECE50"/>
</linearGradient>
<linearGradient id="paint3_linear_117_288" x1="46.7296" y1="45.1487" x2="46.7296" y2="85.4379" gradientUnits="userSpaceOnUse">
<stop offset="0.19" stop-color="#498F4A"/>
<stop offset="0.57" stop-color="#94B84E"/>
<stop offset="0.78" stop-color="#BECE50"/>
</linearGradient>
<linearGradient id="paint4_linear_117_288" x1="31.0181" y1="100.857" x2="61.4442" y2="-13.9244" gradientUnits="userSpaceOnUse">
<stop offset="0.05" stop-color="#498F4A"/>
<stop offset="0.1" stop-color="#5A984B"/>
<stop offset="0.23" stop-color="#85AF4D"/>
<stop offset="0.35" stop-color="#A4C04F"/>
<stop offset="0.45" stop-color="#B7CA50"/>
<stop offset="0.52" stop-color="#BECE50"/>
</linearGradient>
<linearGradient id="paint5_linear_117_288" x1="53.1465" y1="33.1907" x2="88.3076" y2="-1.51867" gradientUnits="userSpaceOnUse">
<stop stop-color="#7CAA44"/>
<stop offset="0.41" stop-color="#98B949"/>
<stop offset="1" stop-color="#BECE50"/>
</linearGradient>
</defs>
</svg>
